<svg id="Layer_1" data-name="Layer 1" xmlns="http://www.w3.org/2000/svg" viewBox="0 0 219.9 106.47"><defs><style>.cls-1{fill:#fff;}</style></defs><title>SG-Digital</title><path class="cls-1" d="M126.19,60.86A39.59,39.59,0,0,1,52.34,40.63,39.59,39.59,0,0,1,126.76,21.4L115.43,28.3A26.5,26.5,0,1,0,92,67.28a26.38,26.38,0,0,0,22.9-13.35Zm5.72-26.2H92.07V48H131.9Z"/><path class="cls-1" d="M66.2,50.17a18.48,18.48,0,0,0-4.25-6.91c-4.39-4.59-11.8-7.66-17.72-9.4L32.87,30.52c-3.11-.92-6.44-1.65-9.24-3.37a7.72,7.72,0,0,1-2.69-2.51,5.34,5.34,0,0,1-.43-4.77c1.06-3.15,4.75-5.05,7.78-5.61a24.29,24.29,0,0,1,11.24.7,27.82,27.82,0,0,1,8.56,4.4c.41.3,1.21.94,2.06,1.7.07-.13.16-.25.23-.38A46.56,46.56,0,0,1,57.44,9.88,43,43,0,0,0,51,5.38a33.18,33.18,0,0,0-8.83-3.79c-6.78-1.7-14-1.76-20.46.72-6.27,2.39-11.94,7.47-14,14a21.44,21.44,0,0,0-.54,10.9,20.72,20.72,0,0,0,6,9.6,39.27,39.27,0,0,0,13.24,7L37.11,47c2.9.89,5.89,1.64,8.72,2.75s4.75,2,5.94,5,.27,5.67-2,7.81c-2.66,2.56-5.6,3.85-9.94,4.74a28.28,28.28,0,0,1-11.59-.54A27.41,27.41,0,0,1,12.46,56.16,26.5,26.5,0,0,1,11,53.84L0,61A42.4,42.4,0,0,0,15.72,76.17a39.88,39.88,0,0,0,25.94,4.06,38.48,38.48,0,0,0,14.18-5.75C64.93,68.14,69.65,59.87,66.2,50.17Z"/><rect class="cls-1" x="138.73" width="13.99" height="13.98"/><rect class="cls-1" x="138.73" y="16.82" width="13.99" height="13.99"/><rect class="cls-1" x="138.73" y="33.63" width="13.99" height="13.98"/><rect class="cls-1" x="138.73" y="50.44" width="13.99" height="13.99"/><rect class="cls-1" x="138.73" y="67.26" width="13.99" height="13.99"/><rect class="cls-1" x="155.53" width="13.99" height="13.99"/><rect class="cls-1" x="155.53" y="16.82" width="13.99" height="13.99"/><rect class="cls-1" x="155.53" y="33.63" width="13.99" height="13.98"/><rect class="cls-1" x="155.53" y="50.44" width="13.99" height="13.99"/><rect class="cls-1" x="155.53" y="67.26" width="13.99" height="13.98"/><rect class="cls-1" x="172.32" width="13.99" height="13.99"/><rect class="cls-1" x="172.32" y="16.82" width="13.99" height="13.99"/><rect class="cls-1" x="172.32" y="33.63" width="13.99" height="13.98"/><rect class="cls-1" x="172.32" y="50.44" width="13.99" height="13.99"/><rect class="cls-1" x="172.32" y="67.26" width="13.99" height="13.98"/><rect class="cls-1" x="189.12" width="13.98" height="13.98"/><rect class="cls-1" x="189.12" y="16.82" width="13.98" height="13.99"/><rect class="cls-1" x="189.12" y="33.63" width="13.98" height="13.98"/><rect class="cls-1" x="189.12" y="50.44" width="13.98" height="13.99"/><rect class="cls-1" x="189.12" y="67.26" width="13.98" height="13.99"/><rect class="cls-1" x="205.91" width="13.99" height="13.99"/><rect class="cls-1" x="205.91" y="16.82" width="13.99" height="13.99"/><rect class="cls-1" x="205.91" y="33.63" width="13.99" height="13.98"/><rect class="cls-1" x="205.91" y="50.44" width="13.99" height="13.99"/><rect class="cls-1" x="205.91" y="67.26" width="13.99" height="13.98"/><path class="cls-1" d="M39.2,106.16V89.06h6.74c5.36,0,9.08,3.41,9.08,8.54s-3.72,8.56-9,8.56ZM51.3,97.6A5,5,0,0,0,46,92.27H42.84V103h3.1A5.12,5.12,0,0,0,51.3,97.6Z"/><path class="cls-1" d="M65.81,106.16V89.06h3.64v17.1Z"/><path class="cls-1" d="M80.22,97.63c0-5.41,4.1-8.84,9.13-8.84a8,8,0,0,1,7,3.82l-3,1.64A4.91,4.91,0,0,0,89.34,92a5.62,5.62,0,0,0,0,11.23A5.69,5.69,0,0,0,93,101.93V99.88H88.45V96.7H96.6v6.56a9.46,9.46,0,0,1-7.25,3.2C84.32,106.47,80.22,103,80.22,97.63Z"/><path class="cls-1" d="M107.7,106.16V89.06h3.64v17.1Z"/><path class="cls-1" d="M126.87,106.16V92.27h-5V89.06h13.64v3.21h-5v13.89Z"/><path class="cls-1" d="M156.22,106.16l-1.08-2.9h-7.33l-1.08,2.9h-4.13l6.59-17.1h4.56l6.59,17.1ZM151.48,92.7l-2.67,7.36h5.33Z"/><path class="cls-1" d="M170,106.16V89.06h3.67V103h7.23v3.2Z"/></svg>