<?xml version="1.0" encoding="UTF-8" standalone="no"?><svg width="618" height="212" viewBox="0 0 618 212" xmlns="http://www.w3.org/2000/svg"><title>Group</title><path d="M189.2 52.9l-1.2-2.4c-.1-.1-.1-.2-.2-.3-.1-.2-.2-.3-.3-.5-.4-.7-.7-1.3-1.1-2-.1-.1-.1-.2-.2-.3-3.7-6.5-8.1-12.5-13.1-17.8-4.4-4.7-10-9.3-15.9-13.3-9.6-6.7-19.3-10.9-26.9-12.8-.2-.1-1.8-.4-2-.5C111.8-.6 87.4-.2 74.7 3c-7.7 1.7-18 6.2-27.8 12.5-.1.1-.2.1-.3.2-6.1 4-12 8.7-16.8 13.8C11 49.9 1 78.9 1 113.4v31.7c0 1.7 1.4 3.2 3.2 3.2h41.3c1.7 0 3.2-1.4 3.2-3.2v-31.7c0-42.4 18.8-65.8 53-65.8 34.1 0 52.9 23.4 52.9 65.8v31.7c0 1.7 1.4 3.2 3.2 3.2h41.3c1.7 0 3.2-1.4 3.2-3.2v-31.7c0-22.9-4.4-43.3-12.8-60.3-.2-.1-.3-.1-.3-.2zM358.5 3.2c-1.7 0-3.2 1.4-3.2 3.2v6.4c0 29.7-31.3 46.1-52.9 46.1-20.5 0-52.9-12.5-52.9-46.1V6.5c0-1.7-1.4-3.2-3.2-3.2H205c-1.7 0-3.2 1.4-3.2 3.2v6.3c0 53.6 40.7 82.4 75.5 90.8.4.1.8.5.8 1V145c0 1.7 1.4 3.2 3.2 3.2h41.3c1.7 0 3.2-1.4 3.2-3.2v-40.7c0-.4.3-.8.7-1 15.2-3.8 30.1-11.2 42-20.7C390.8 64.7 403 39.8 403 12.7V6.3c0-1.7-1.4-3.1-3.2-3.1h-41.3zM14.6 199.9h6.9v5c-1.7 1.2-4 2-6.5 2-5.5 0-9.2-4.1-9.2-9.6v-.1c0-5.2 3.8-9.5 8.7-9.5 3.4 0 5.5 1.1 7.5 2.9l3-3.6c-2.8-2.3-5.7-3.7-10.3-3.7-8.1 0-13.9 6.4-13.9 13.9v.1c0 7.8 5.5 13.9 14 13.9 4.8 0 8.6-1.9 11.2-4.2v-11.3H14.5v4.2h.1zm54.1-16.2l-11.9 27.1h4.8l2.8-6.5h12.7l2.7 6.5h5l-11.9-27.1h-4.2zm-2.5 16.5l4.6-10.8 4.7 10.8h-9.3zm63.5-3.5l-8.2-12.8h-5v27h4.6v-19.3l8.5 12.7h.1l8.5-12.7v19.3h4.7v-27h-5l-8.2 12.8zm47.4-12.8h4.7v26.9h-4.7zm57.6 18.7l-14.4-18.7h-4.4v27h4.7v-19.2l14.8 19.2h4v-27h-4.7v18.7zm51.1-2.7h6.9v5c-1.7 1.2-4 2-6.5 2-5.5 0-9.2-4.1-9.2-9.6v-.1c0-5.2 3.8-9.5 8.7-9.5 3.4 0 5.5 1.1 7.5 2.9l3-3.6c-2.8-2.3-5.7-3.7-10.4-3.7-8.1 0-13.9 6.4-13.9 13.9v.1c0 7.8 5.5 13.9 14 13.9 4.8 0 8.6-1.9 11.2-4.2v-11.3h-11.5v4.2h.2zm95.5 0h6.9v5c-1.7 1.2-4 2-6.5 2-5.5 0-9.2-4.1-9.2-9.6v-.1c0-5.2 3.8-9.5 8.7-9.5 3.4 0 5.5 1.1 7.5 2.9l3-3.6c-2.8-2.3-5.7-3.7-10.3-3.7-8.1 0-13.9 6.4-13.9 13.9v.1c0 7.8 5.5 13.9 14 13.9 4.8 0 8.6-1.9 11.2-4.2v-11.3h-11.5v4.2h.1zm66.6-7.4c0-2.4-.8-4.4-2.2-5.9-1.7-1.7-4.4-2.7-7.8-2.7h-12v26.9h4.7v-9.4h5.9l6.6 9.4h5.6l-7.3-10.2c3.8-1 6.5-3.7 6.5-8.1zm-17.3 4.8v-9h6.9c3.5 0 5.6 1.6 5.6 4.5v.1c0 2.7-2.2 4.5-5.5 4.5h-7v-.1zm62.9-13.8c-8.3 0-14.1 6.3-14.1 13.9v.1c0 7.6 5.8 13.9 14 13.9 8.3 0 14.1-6.4 14.1-13.9v-.1c.1-7.7-5.7-13.9-14-13.9zm9.1 14c0 5.2-3.7 9.5-9.1 9.5-5.3 0-9.2-4.3-9.2-9.6v-.1c0-5.2 3.7-9.5 9.1-9.5 5.4 0 9.2 4.4 9.2 9.7zm55.5 1.9c0 5-2.6 7.5-6.8 7.5-4.2 0-6.8-2.7-6.8-7.7v-15.3h-4.7v15.5c0 7.8 4.5 11.9 11.5 11.9s11.6-4 11.6-12.1v-15.3h-4.7v15.5h-.1zm48.8-15.5h-10.6v26.9h4.7v-8.7h5.3c5.9 0 10.8-3.2 10.8-9.2v-.1c0-5.3-3.9-8.9-10.2-8.9zm5.4 9.2c0 2.8-2.2 4.8-5.8 4.8H601v-9.7h5.5c3.5 0 5.8 1.7 5.8 4.9zm1.7-44.9c1.3 0 2.4-.8 2.9-2s.2-2.5-.7-3.5l-72-72.2c-.4-.4-.4-1 0-1.4l60.4-60.6c.9-.9 1.2-2.3.7-3.5-.5-1.2-1.6-2-2.9-2h-57.8c-.8 0-1.6.3-2.2.9l-31.5 31.6c-.2.2-.4.3-.7.3-.3 0-.5-.1-.7-.3L478 4.1c-.6-.6-1.4-.9-2.2-.9H418c-1.3 0-2.4.8-2.9 2s-.2 2.5.7 3.5l60.4 60.6c.4.4.4 1 0 1.4l-71.9 72.2c-.9.9-1.2 2.3-.7 3.5.5 1.2 1.6 2 2.9 2h57.8c.8 0 1.6-.3 2.2-.9l43-43.2c.2-.2.4-.3.7-.3.3 0 .5.1.7.3l43.1 43.2c.5.4 1.3.7 2.2.7H614z" fill="#FFF" fill-rule="evenodd"/></svg>